<svg width="800" height="260" viewBox="0 0 800 260" fill="none" xmlns="http://www.w3.org/2000/svg">
  <rect width="800" height="260" rx="24" fill="#F3F4F6"/>
  <rect x="16" y="16" width="768" height="228" rx="18" fill="#111827" fill-opacity="0.08"/>
  <circle cx="120" cy="130" r="56" fill="#111827"/>
  <path d="M131 84c-7 1-15 9-14 18 8 1 15-4 19-9 4-5 7-11 6-17-4 0-8 2-11 4z" fill="white"/>
  <path d="M149 159c-5 8-10 16-18 16s-10-5-19-5-11 5-19 5-14-7-20-16c-12-17-21-48-9-69 6-10 16-16 27-16 8 0 15 5 21 5 6 0 14-6 23-5 4 0 15 2 23 13-1 1-14 8-14 26 0 22 19 29 19 29-1 1-3 8-14 17z" fill="white"/>
  <text x="220" y="112" fill="#0F172A" font-family="Arial, sans-serif" font-size="52" font-weight="700">iOS</text>
  <text x="220" y="168" fill="#B45309" font-family="Arial, sans-serif" font-size="52" font-weight="800">PRÓXIMAMENTE</text>
</svg>
